<?xml version="1.0" encoding="utf-8"?>
<!-- Generator: Adobe Illustrator 27.7.0, SVG Export Plug-In . SVG Version: 6.00 Build 0)  -->
<svg version="1.1" id="Layer_1" xmlns="http://www.w3.org/2000/svg" xmlns:xlink="http://www.w3.org/1999/xlink" x="0px" y="0px"
	 viewBox="0 0 144 145.2" style="enable-background:new 0 0 144 145.2;" xml:space="preserve">
<style type="text/css">
	.st0{fill:#BCBEC0;}
	.st1{fill:#FFFFFF;stroke:#006EB5;stroke-width:7.2115;stroke-miterlimit:10;}
	.st2{opacity:0.4;fill:#006EB7;}
	.st3{fill:#006EB5;}
</style>
<path class="st0" d="M142.5,72.6c0,38.8-31.5,70.3-70.3,70.3c-38.8,0-70.3-31.5-70.3-70.3c0-38.8,31.5-70.3,70.3-70.3
	C111,2.3,142.5,33.8,142.5,72.6z"/>
<path class="st1" d="M135.6,72.6c0,35-28.4,63.5-63.5,63.5c-35,0-63.5-28.4-63.5-63.5c0-35,28.4-63.5,63.5-63.5
	C107.2,9.2,135.6,37.6,135.6,72.6z"/>
<path class="st2" d="M58.7,123.7c0,0-11.4-27.9,18.3-49.3c39.3-28.2,9.9-53.3,9.9-53.3S93.7,44,67.2,62.4
	C26.1,91,58.7,123.7,58.7,123.7"/>
<path class="st3" d="M67.2,62.4c23.3-16.2,20.9-35.8,19.9-40.3c-2.9-7.9-8.7-12.8-8.7-12.8s7.5,22.8-19,41.3
	c-39.2,27.3-11.8,57.8-9.1,60.6C44.5,99.1,41.9,80,67.2,62.4z"/>
<path class="st3" d="M95.5,33.1c0,0,0.2,0.5,0.4,1.3c3.6,10,2.8,24.5-18.8,40c-29.7,21.4-18.3,49.3-18.3,49.3s-0.1-0.1-0.3-0.3
	c3.2,7.6,7.7,12.4,7.7,12.4s-10.1-28.7,19.6-50C125,57.5,95.5,33.1,95.5,33.1z"/>
</svg>
